# xmcd
#
# Track frame offsets:
#	150
#	16221
#	35376
#	52334
#	71880
#	88652
#	106526
#	123169
#	138352
#	154192
#	170809
#	188482
#	204240
#	219923
#	238304
#	252218
#	267475
#	285922
#	304752
#	322377
#	336175
#
# Disc length: 4686 seconds
#
# Revision: 1
# Processed by: cddbd v1.5.2PL0 Copyright (c) Steve Scherf et al.
# Submitted via: audiograbber 1.83.01
#
DISCID=34124c15
DTITLE=Various Artist - Ministry of Sound Ultimate Breakdance Disc 1
DYEAR=2009
DGENRE=Hip-Hop
TTITLE0=Freestyle - Don't Stop The Rock
TTITLE1=Run D.M.C. and Aerosmith - Walk This Way
TTITLE2=Eric B. and Rakim - I Know You Got Soul
TTITLE3=N.W.A. - Express Yourself
TTITLE4=Cameo - Word Up
TTITLE5=A Tribe Called Quest - Can I Kick It
TTITLE6=Young MC - Know How 
TTITLE7=Lisa Lisa and Cult Jam - I Wonder If I Take You Home 
TTITLE8=Full Force - Alice I Want You Just For Me
TTITLE9=Ollie and Jerry - There's No Stopping Us (Breaking)
TTITLE10=Whodini - Magic Wand
TTITLE11=Stezo - It's My Turn
TTITLE12=Sugar Bear - Don't Scandalize Me
TTITLE13=Tone-Loc - Funky Cold Medina
TTITLE14=Gang Starr - Just To Get A Rep
TTITLE15=EPMD - Strickly Business
TTITLE16=Cash Money and Marvellous - The Mighty Hard Rocker
TTITLE17=Pete Rock and C.L. Smooth - The Creator
TTITLE18=Stetsasonic - Talkin All That Jazz
TTITLE19=Cypress Hill - When The Ship Goes Down
TTITLE20=Tyrone Brunson - The Smurf
EXTD=Disk 1 of 2
EXTT0=
EXTT1=
EXTT2=
EXTT3=
EXTT4=
EXTT5=
EXTT6=
EXTT7=
EXTT8=
EXTT9=
EXTT10=
EXTT11=
EXTT12=
EXTT13=
EXTT14=
EXTT15=
EXTT16=
EXTT17=
EXTT18=
EXTT19=
EXTT20=
PLAYORDER=
